<mxfile host="app.diagrams.net" agent="Mozilla/5.0 (Windows NT 10.0; Win64; x64) AppleWebKit/537.36 (KHTML, like Gecko) Chrome/135.0.0.0 Safari/537.36" version="26.2.14">
  <diagram name="PÃ¡gina-1" id="iyX6btdqdAK2B7pVNfEv">
    <mxGraphModel dx="2570" dy="2477" grid="1" gridSize="10" guides="1" tooltips="1" connect="1" arrows="1" fold="1" page="1" pageScale="1" pageWidth="827" pageHeight="1169" math="0" shadow="0">
      <root>
        <mxCell id="0" />
        <mxCell id="1" parent="0" />
        <mxCell id="vxe2KzLnzvi5ExElpfic-13" value="" style="edgeStyle=orthogonalEdgeStyle;rounded=0;orthogonalLoop=1;jettySize=auto;html=1;" edge="1" parent="1" source="vxe2KzLnzvi5ExElpfic-1" target="vxe2KzLnzvi5ExElpfic-12">
          <mxGeometry relative="1" as="geometry" />
        </mxCell>
        <mxCell id="vxe2KzLnzvi5ExElpfic-16" value="" style="edgeStyle=orthogonalEdgeStyle;rounded=0;orthogonalLoop=1;jettySize=auto;html=1;exitX=0.187;exitY=0.053;exitDx=0;exitDy=0;exitPerimeter=0;" edge="1" parent="1" source="vxe2KzLnzvi5ExElpfic-1" target="vxe2KzLnzvi5ExElpfic-15">
          <mxGeometry relative="1" as="geometry" />
        </mxCell>
        <mxCell id="vxe2KzLnzvi5ExElpfic-20" value="" style="edgeStyle=orthogonalEdgeStyle;rounded=0;orthogonalLoop=1;jettySize=auto;html=1;" edge="1" parent="1" source="vxe2KzLnzvi5ExElpfic-1" target="vxe2KzLnzvi5ExElpfic-19">
          <mxGeometry relative="1" as="geometry" />
        </mxCell>
        <mxCell id="vxe2KzLnzvi5ExElpfic-23" style="edgeStyle=orthogonalEdgeStyle;rounded=0;orthogonalLoop=1;jettySize=auto;html=1;exitX=0.847;exitY=0.04;exitDx=0;exitDy=0;entryX=0.5;entryY=1;entryDx=0;entryDy=0;exitPerimeter=0;" edge="1" parent="1" source="vxe2KzLnzvi5ExElpfic-1" target="vxe2KzLnzvi5ExElpfic-22">
          <mxGeometry relative="1" as="geometry" />
        </mxCell>
        <mxCell id="vxe2KzLnzvi5ExElpfic-31" style="edgeStyle=orthogonalEdgeStyle;rounded=0;orthogonalLoop=1;jettySize=auto;html=1;exitX=0.75;exitY=1;exitDx=0;exitDy=0;entryX=0;entryY=0.5;entryDx=0;entryDy=0;" edge="1" parent="1" source="vxe2KzLnzvi5ExElpfic-1" target="vxe2KzLnzvi5ExElpfic-28">
          <mxGeometry relative="1" as="geometry" />
        </mxCell>
        <mxCell id="vxe2KzLnzvi5ExElpfic-43" style="edgeStyle=orthogonalEdgeStyle;rounded=0;orthogonalLoop=1;jettySize=auto;html=1;entryX=0;entryY=0.5;entryDx=0;entryDy=0;" edge="1" parent="1" source="vxe2KzLnzvi5ExElpfic-1" target="vxe2KzLnzvi5ExElpfic-42">
          <mxGeometry relative="1" as="geometry">
            <Array as="points">
              <mxPoint x="80" y="-85" />
            </Array>
          </mxGeometry>
        </mxCell>
        <mxCell id="vxe2KzLnzvi5ExElpfic-47" style="edgeStyle=orthogonalEdgeStyle;rounded=0;orthogonalLoop=1;jettySize=auto;html=1;entryX=0.5;entryY=0;entryDx=0;entryDy=0;" edge="1" parent="1" source="vxe2KzLnzvi5ExElpfic-1" target="vxe2KzLnzvi5ExElpfic-46">
          <mxGeometry relative="1" as="geometry" />
        </mxCell>
        <mxCell id="vxe2KzLnzvi5ExElpfic-55" style="edgeStyle=orthogonalEdgeStyle;rounded=0;orthogonalLoop=1;jettySize=auto;html=1;exitX=0;exitY=1;exitDx=0;exitDy=0;entryX=1;entryY=0.5;entryDx=0;entryDy=0;" edge="1" parent="1" source="vxe2KzLnzvi5ExElpfic-1" target="vxe2KzLnzvi5ExElpfic-54">
          <mxGeometry relative="1" as="geometry" />
        </mxCell>
        <mxCell id="vxe2KzLnzvi5ExElpfic-1" value="Empresas" style="rounded=0;whiteSpace=wrap;html=1;" vertex="1" parent="1">
          <mxGeometry y="250" width="120" height="60" as="geometry" />
        </mxCell>
        <mxCell id="vxe2KzLnzvi5ExElpfic-2" value="Usuarios" style="rounded=0;whiteSpace=wrap;html=1;" vertex="1" parent="1">
          <mxGeometry x="-540" y="250" width="120" height="60" as="geometry" />
        </mxCell>
        <mxCell id="vxe2KzLnzvi5ExElpfic-58" style="edgeStyle=orthogonalEdgeStyle;rounded=0;orthogonalLoop=1;jettySize=auto;html=1;exitX=0;exitY=0.5;exitDx=0;exitDy=0;" edge="1" parent="1" source="vxe2KzLnzvi5ExElpfic-3" target="vxe2KzLnzvi5ExElpfic-57">
          <mxGeometry relative="1" as="geometry" />
        </mxCell>
        <mxCell id="vxe2KzLnzvi5ExElpfic-3" value="Clientes" style="rounded=0;whiteSpace=wrap;html=1;" vertex="1" parent="1">
          <mxGeometry x="-430" y="-135" width="120" height="60" as="geometry" />
        </mxCell>
        <mxCell id="vxe2KzLnzvi5ExElpfic-26" style="edgeStyle=orthogonalEdgeStyle;rounded=0;orthogonalLoop=1;jettySize=auto;html=1;entryX=0.5;entryY=1;entryDx=0;entryDy=0;exitX=1;exitY=0.25;exitDx=0;exitDy=0;" edge="1" parent="1" source="vxe2KzLnzvi5ExElpfic-4" target="vxe2KzLnzvi5ExElpfic-25">
          <mxGeometry relative="1" as="geometry" />
        </mxCell>
        <mxCell id="vxe2KzLnzvi5ExElpfic-33" style="edgeStyle=orthogonalEdgeStyle;rounded=0;orthogonalLoop=1;jettySize=auto;html=1;exitX=1;exitY=0.75;exitDx=0;exitDy=0;entryX=0.5;entryY=0;entryDx=0;entryDy=0;" edge="1" parent="1" source="vxe2KzLnzvi5ExElpfic-4" target="vxe2KzLnzvi5ExElpfic-32">
          <mxGeometry relative="1" as="geometry" />
        </mxCell>
        <mxCell id="vxe2KzLnzvi5ExElpfic-4" value="Proveedores" style="rounded=0;whiteSpace=wrap;html=1;" vertex="1" parent="1">
          <mxGeometry x="380" y="250" width="120" height="60" as="geometry" />
        </mxCell>
        <mxCell id="vxe2KzLnzvi5ExElpfic-36" value="" style="edgeStyle=orthogonalEdgeStyle;rounded=0;orthogonalLoop=1;jettySize=auto;html=1;exitX=0.827;exitY=0.043;exitDx=0;exitDy=0;exitPerimeter=0;" edge="1" parent="1" source="vxe2KzLnzvi5ExElpfic-5" target="vxe2KzLnzvi5ExElpfic-35">
          <mxGeometry relative="1" as="geometry" />
        </mxCell>
        <mxCell id="vxe2KzLnzvi5ExElpfic-5" value="Compras" style="rounded=0;whiteSpace=wrap;html=1;" vertex="1" parent="1">
          <mxGeometry x="380" y="120" width="120" height="60" as="geometry" />
        </mxCell>
        <mxCell id="vxe2KzLnzvi5ExElpfic-68" style="edgeStyle=orthogonalEdgeStyle;rounded=0;orthogonalLoop=1;jettySize=auto;html=1;entryX=1;entryY=0.5;entryDx=0;entryDy=0;" edge="1" parent="1" source="vxe2KzLnzvi5ExElpfic-6" target="vxe2KzLnzvi5ExElpfic-65">
          <mxGeometry relative="1" as="geometry">
            <mxPoint x="-220" y="980" as="targetPoint" />
            <Array as="points">
              <mxPoint x="440" y="980" />
              <mxPoint x="-230" y="980" />
            </Array>
          </mxGeometry>
        </mxCell>
        <mxCell id="vxe2KzLnzvi5ExElpfic-6" value="Productos" style="rounded=0;whiteSpace=wrap;html=1;" vertex="1" parent="1">
          <mxGeometry x="380" y="450" width="120" height="60" as="geometry" />
        </mxCell>
        <mxCell id="vxe2KzLnzvi5ExElpfic-7" value="Detalles_Compra" style="rounded=0;whiteSpace=wrap;html=1;" vertex="1" parent="1">
          <mxGeometry x="760" y="-25" width="120" height="60" as="geometry" />
        </mxCell>
        <mxCell id="vxe2KzLnzvi5ExElpfic-60" style="edgeStyle=orthogonalEdgeStyle;rounded=0;orthogonalLoop=1;jettySize=auto;html=1;entryX=0.5;entryY=0;entryDx=0;entryDy=0;" edge="1" parent="1" source="vxe2KzLnzvi5ExElpfic-8" target="vxe2KzLnzvi5ExElpfic-50">
          <mxGeometry relative="1" as="geometry" />
        </mxCell>
        <mxCell id="vxe2KzLnzvi5ExElpfic-8" value="Envios" style="rounded=0;whiteSpace=wrap;html=1;" vertex="1" parent="1">
          <mxGeometry x="-440" y="375" width="120" height="60" as="geometry" />
        </mxCell>
        <mxCell id="vxe2KzLnzvi5ExElpfic-9" value="Ventas" style="rounded=0;whiteSpace=wrap;html=1;" vertex="1" parent="1">
          <mxGeometry x="150" y="650" width="120" height="60" as="geometry" />
        </mxCell>
        <mxCell id="vxe2KzLnzvi5ExElpfic-10" value="Detalles_venta" style="rounded=0;whiteSpace=wrap;html=1;" vertex="1" parent="1">
          <mxGeometry x="-440" y="650" width="120" height="60" as="geometry" />
        </mxCell>
        <mxCell id="vxe2KzLnzvi5ExElpfic-14" value="" style="edgeStyle=orthogonalEdgeStyle;rounded=0;orthogonalLoop=1;jettySize=auto;html=1;" edge="1" parent="1" source="vxe2KzLnzvi5ExElpfic-12" target="vxe2KzLnzvi5ExElpfic-2">
          <mxGeometry relative="1" as="geometry" />
        </mxCell>
        <mxCell id="vxe2KzLnzvi5ExElpfic-12" value="Gestionan" style="rhombus;whiteSpace=wrap;html=1;rounded=0;" vertex="1" parent="1">
          <mxGeometry x="-240" y="255" width="100" height="50" as="geometry" />
        </mxCell>
        <mxCell id="vxe2KzLnzvi5ExElpfic-17" style="edgeStyle=orthogonalEdgeStyle;rounded=0;orthogonalLoop=1;jettySize=auto;html=1;entryX=1;entryY=0.5;entryDx=0;entryDy=0;" edge="1" parent="1" source="vxe2KzLnzvi5ExElpfic-15" target="vxe2KzLnzvi5ExElpfic-3">
          <mxGeometry relative="1" as="geometry" />
        </mxCell>
        <mxCell id="vxe2KzLnzvi5ExElpfic-15" value="Atienden" style="rhombus;whiteSpace=wrap;html=1;rounded=0;" vertex="1" parent="1">
          <mxGeometry x="-30" y="-130" width="100" height="50" as="geometry" />
        </mxCell>
        <mxCell id="vxe2KzLnzvi5ExElpfic-21" style="edgeStyle=orthogonalEdgeStyle;rounded=0;orthogonalLoop=1;jettySize=auto;html=1;entryX=0;entryY=0.5;entryDx=0;entryDy=0;" edge="1" parent="1" source="vxe2KzLnzvi5ExElpfic-19" target="vxe2KzLnzvi5ExElpfic-4">
          <mxGeometry relative="1" as="geometry" />
        </mxCell>
        <mxCell id="vxe2KzLnzvi5ExElpfic-19" value="Trabajan" style="rhombus;whiteSpace=wrap;html=1;rounded=0;" vertex="1" parent="1">
          <mxGeometry x="220" y="255" width="100" height="50" as="geometry" />
        </mxCell>
        <mxCell id="vxe2KzLnzvi5ExElpfic-24" style="edgeStyle=orthogonalEdgeStyle;rounded=0;orthogonalLoop=1;jettySize=auto;html=1;entryX=0;entryY=0.5;entryDx=0;entryDy=0;" edge="1" parent="1" source="vxe2KzLnzvi5ExElpfic-22" target="vxe2KzLnzvi5ExElpfic-5">
          <mxGeometry relative="1" as="geometry" />
        </mxCell>
        <mxCell id="vxe2KzLnzvi5ExElpfic-22" value="Realizan" style="rhombus;whiteSpace=wrap;html=1;" vertex="1" parent="1">
          <mxGeometry x="100" y="125" width="100" height="50" as="geometry" />
        </mxCell>
        <mxCell id="vxe2KzLnzvi5ExElpfic-27" style="edgeStyle=orthogonalEdgeStyle;rounded=0;orthogonalLoop=1;jettySize=auto;html=1;entryX=1;entryY=0.5;entryDx=0;entryDy=0;exitX=0.5;exitY=0;exitDx=0;exitDy=0;" edge="1" parent="1" source="vxe2KzLnzvi5ExElpfic-25" target="vxe2KzLnzvi5ExElpfic-5">
          <mxGeometry relative="1" as="geometry" />
        </mxCell>
        <mxCell id="vxe2KzLnzvi5ExElpfic-25" value="Suministran" style="rhombus;whiteSpace=wrap;html=1;" vertex="1" parent="1">
          <mxGeometry x="650" y="190" width="100" height="50" as="geometry" />
        </mxCell>
        <mxCell id="vxe2KzLnzvi5ExElpfic-30" style="edgeStyle=orthogonalEdgeStyle;rounded=0;orthogonalLoop=1;jettySize=auto;html=1;" edge="1" parent="1" source="vxe2KzLnzvi5ExElpfic-28" target="vxe2KzLnzvi5ExElpfic-6">
          <mxGeometry relative="1" as="geometry">
            <Array as="points">
              <mxPoint x="330" y="480" />
              <mxPoint x="330" y="480" />
            </Array>
          </mxGeometry>
        </mxCell>
        <mxCell id="vxe2KzLnzvi5ExElpfic-28" value="Ofrecen" style="rhombus;whiteSpace=wrap;html=1;" vertex="1" parent="1">
          <mxGeometry x="220" y="455" width="100" height="50" as="geometry" />
        </mxCell>
        <mxCell id="vxe2KzLnzvi5ExElpfic-34" style="edgeStyle=orthogonalEdgeStyle;rounded=0;orthogonalLoop=1;jettySize=auto;html=1;entryX=1;entryY=0.5;entryDx=0;entryDy=0;" edge="1" parent="1" source="vxe2KzLnzvi5ExElpfic-32" target="vxe2KzLnzvi5ExElpfic-6">
          <mxGeometry relative="1" as="geometry">
            <Array as="points">
              <mxPoint x="700" y="480" />
            </Array>
          </mxGeometry>
        </mxCell>
        <mxCell id="vxe2KzLnzvi5ExElpfic-32" value="Proveen" style="rhombus;whiteSpace=wrap;html=1;" vertex="1" parent="1">
          <mxGeometry x="650" y="375" width="100" height="55" as="geometry" />
        </mxCell>
        <mxCell id="vxe2KzLnzvi5ExElpfic-37" style="edgeStyle=orthogonalEdgeStyle;rounded=0;orthogonalLoop=1;jettySize=auto;html=1;exitX=1;exitY=0.5;exitDx=0;exitDy=0;entryX=0;entryY=0.5;entryDx=0;entryDy=0;" edge="1" parent="1" source="vxe2KzLnzvi5ExElpfic-35" target="vxe2KzLnzvi5ExElpfic-7">
          <mxGeometry relative="1" as="geometry" />
        </mxCell>
        <mxCell id="vxe2KzLnzvi5ExElpfic-35" value="Contienen" style="rhombus;whiteSpace=wrap;html=1;rounded=0;" vertex="1" parent="1">
          <mxGeometry x="430" y="-20" width="100" height="50" as="geometry" />
        </mxCell>
        <mxCell id="vxe2KzLnzvi5ExElpfic-38" style="edgeStyle=orthogonalEdgeStyle;rounded=0;orthogonalLoop=1;jettySize=auto;html=1;exitX=0.907;exitY=1.05;exitDx=0;exitDy=0;exitPerimeter=0;entryX=0.5;entryY=1;entryDx=0;entryDy=0;" edge="1" parent="1" source="vxe2KzLnzvi5ExElpfic-6" target="vxe2KzLnzvi5ExElpfic-39">
          <mxGeometry relative="1" as="geometry">
            <mxPoint x="510" y="40" as="targetPoint" />
            <Array as="points">
              <mxPoint x="489" y="540" />
              <mxPoint x="1070" y="540" />
            </Array>
          </mxGeometry>
        </mxCell>
        <mxCell id="vxe2KzLnzvi5ExElpfic-40" style="edgeStyle=orthogonalEdgeStyle;rounded=0;orthogonalLoop=1;jettySize=auto;html=1;exitX=0.5;exitY=0;exitDx=0;exitDy=0;entryX=1;entryY=0.5;entryDx=0;entryDy=0;" edge="1" parent="1" source="vxe2KzLnzvi5ExElpfic-39" target="vxe2KzLnzvi5ExElpfic-7">
          <mxGeometry relative="1" as="geometry" />
        </mxCell>
        <mxCell id="vxe2KzLnzvi5ExElpfic-39" value="Incluyen" style="rhombus;whiteSpace=wrap;html=1;" vertex="1" parent="1">
          <mxGeometry x="1020" y="100" width="100" height="50" as="geometry" />
        </mxCell>
        <mxCell id="vxe2KzLnzvi5ExElpfic-44" style="edgeStyle=orthogonalEdgeStyle;rounded=0;orthogonalLoop=1;jettySize=auto;html=1;exitX=1;exitY=0.5;exitDx=0;exitDy=0;" edge="1" parent="1" source="vxe2KzLnzvi5ExElpfic-42" target="vxe2KzLnzvi5ExElpfic-7">
          <mxGeometry relative="1" as="geometry" />
        </mxCell>
        <mxCell id="vxe2KzLnzvi5ExElpfic-42" value="Registran" style="rhombus;whiteSpace=wrap;html=1;" vertex="1" parent="1">
          <mxGeometry x="230" y="-110" width="100" height="50" as="geometry" />
        </mxCell>
        <mxCell id="vxe2KzLnzvi5ExElpfic-48" style="edgeStyle=orthogonalEdgeStyle;rounded=0;orthogonalLoop=1;jettySize=auto;html=1;entryX=0.5;entryY=0;entryDx=0;entryDy=0;" edge="1" parent="1" source="vxe2KzLnzvi5ExElpfic-46" target="vxe2KzLnzvi5ExElpfic-9">
          <mxGeometry relative="1" as="geometry" />
        </mxCell>
        <mxCell id="vxe2KzLnzvi5ExElpfic-46" value="Efectuan" style="rhombus;whiteSpace=wrap;html=1;" vertex="1" parent="1">
          <mxGeometry x="10" y="508" width="100" height="47" as="geometry" />
        </mxCell>
        <mxCell id="vxe2KzLnzvi5ExElpfic-61" style="edgeStyle=orthogonalEdgeStyle;rounded=0;orthogonalLoop=1;jettySize=auto;html=1;exitX=0.5;exitY=1;exitDx=0;exitDy=0;entryX=0.5;entryY=0;entryDx=0;entryDy=0;" edge="1" parent="1" source="vxe2KzLnzvi5ExElpfic-50" target="vxe2KzLnzvi5ExElpfic-10">
          <mxGeometry relative="1" as="geometry" />
        </mxCell>
        <mxCell id="vxe2KzLnzvi5ExElpfic-50" value="Tienen" style="rhombus;whiteSpace=wrap;html=1;" vertex="1" parent="1">
          <mxGeometry x="-430" y="520" width="100" height="40" as="geometry" />
        </mxCell>
        <mxCell id="vxe2KzLnzvi5ExElpfic-56" style="edgeStyle=orthogonalEdgeStyle;rounded=0;orthogonalLoop=1;jettySize=auto;html=1;exitX=0;exitY=0.5;exitDx=0;exitDy=0;entryX=1;entryY=0.5;entryDx=0;entryDy=0;" edge="1" parent="1" source="vxe2KzLnzvi5ExElpfic-54" target="vxe2KzLnzvi5ExElpfic-8">
          <mxGeometry relative="1" as="geometry" />
        </mxCell>
        <mxCell id="vxe2KzLnzvi5ExElpfic-54" value="Organizan" style="rhombus;whiteSpace=wrap;html=1;" vertex="1" parent="1">
          <mxGeometry x="-150" y="380" width="100" height="50" as="geometry" />
        </mxCell>
        <mxCell id="vxe2KzLnzvi5ExElpfic-59" style="edgeStyle=orthogonalEdgeStyle;rounded=0;orthogonalLoop=1;jettySize=auto;html=1;exitX=0.5;exitY=1;exitDx=0;exitDy=0;entryX=0.5;entryY=1;entryDx=0;entryDy=0;" edge="1" parent="1" source="vxe2KzLnzvi5ExElpfic-57" target="vxe2KzLnzvi5ExElpfic-9">
          <mxGeometry relative="1" as="geometry">
            <Array as="points">
              <mxPoint x="-665" y="840" />
              <mxPoint x="210" y="840" />
            </Array>
          </mxGeometry>
        </mxCell>
        <mxCell id="vxe2KzLnzvi5ExElpfic-57" value="Realizan" style="rhombus;whiteSpace=wrap;html=1;" vertex="1" parent="1">
          <mxGeometry x="-720" y="360" width="110" height="50" as="geometry" />
        </mxCell>
        <mxCell id="vxe2KzLnzvi5ExElpfic-64" style="edgeStyle=orthogonalEdgeStyle;rounded=0;orthogonalLoop=1;jettySize=auto;html=1;exitX=0;exitY=0.5;exitDx=0;exitDy=0;entryX=1;entryY=0.5;entryDx=0;entryDy=0;" edge="1" parent="1" source="vxe2KzLnzvi5ExElpfic-62" target="vxe2KzLnzvi5ExElpfic-10">
          <mxGeometry relative="1" as="geometry" />
        </mxCell>
        <mxCell id="vxe2KzLnzvi5ExElpfic-62" value="Incluyen" style="rhombus;whiteSpace=wrap;html=1;" vertex="1" parent="1">
          <mxGeometry x="-170" y="655" width="100" height="50" as="geometry" />
        </mxCell>
        <mxCell id="vxe2KzLnzvi5ExElpfic-63" style="edgeStyle=orthogonalEdgeStyle;rounded=0;orthogonalLoop=1;jettySize=auto;html=1;entryX=1;entryY=0.5;entryDx=0;entryDy=0;" edge="1" parent="1" source="vxe2KzLnzvi5ExElpfic-9" target="vxe2KzLnzvi5ExElpfic-62">
          <mxGeometry relative="1" as="geometry" />
        </mxCell>
        <mxCell id="vxe2KzLnzvi5ExElpfic-69" style="edgeStyle=orthogonalEdgeStyle;rounded=0;orthogonalLoop=1;jettySize=auto;html=1;entryX=0.5;entryY=1;entryDx=0;entryDy=0;" edge="1" parent="1" source="vxe2KzLnzvi5ExElpfic-65" target="vxe2KzLnzvi5ExElpfic-10">
          <mxGeometry relative="1" as="geometry">
            <Array as="points">
              <mxPoint x="-380" y="985" />
            </Array>
          </mxGeometry>
        </mxCell>
        <mxCell id="vxe2KzLnzvi5ExElpfic-65" value="Se venden" style="rhombus;whiteSpace=wrap;html=1;rounded=0;" vertex="1" parent="1">
          <mxGeometry x="-330" y="960" width="100" height="50" as="geometry" />
        </mxCell>
        <mxCell id="vxe2KzLnzvi5ExElpfic-85" style="edgeStyle=orthogonalEdgeStyle;rounded=0;orthogonalLoop=1;jettySize=auto;html=1;exitX=0;exitY=0.5;exitDx=0;exitDy=0;entryX=1;entryY=1;entryDx=0;entryDy=0;" edge="1" parent="1" source="vxe2KzLnzvi5ExElpfic-74" target="vxe2KzLnzvi5ExElpfic-1">
          <mxGeometry relative="1" as="geometry" />
        </mxCell>
        <mxCell id="vxe2KzLnzvi5ExElpfic-74" value="&lt;font style=&quot;font-size: 6px;&quot;&gt;correo_electronico&lt;/font&gt;" style="ellipse;whiteSpace=wrap;html=1;" vertex="1" parent="1">
          <mxGeometry x="150" y="330" width="60" height="20" as="geometry" />
        </mxCell>
        <mxCell id="vxe2KzLnzvi5ExElpfic-86" style="edgeStyle=orthogonalEdgeStyle;rounded=0;orthogonalLoop=1;jettySize=auto;html=1;exitX=0;exitY=0.5;exitDx=0;exitDy=0;" edge="1" parent="1" source="vxe2KzLnzvi5ExElpfic-75">
          <mxGeometry relative="1" as="geometry">
            <mxPoint x="120" y="310" as="targetPoint" />
          </mxGeometry>
        </mxCell>
        <mxCell id="vxe2KzLnzvi5ExElpfic-75" value="&lt;font style=&quot;font-size: 8px;&quot;&gt;descripciÃ³n&lt;/font&gt;" style="ellipse;whiteSpace=wrap;html=1;" vertex="1" parent="1">
          <mxGeometry x="150" y="350" width="60" height="20" as="geometry" />
        </mxCell>
        <mxCell id="vxe2KzLnzvi5ExElpfic-87" style="edgeStyle=orthogonalEdgeStyle;rounded=0;orthogonalLoop=1;jettySize=auto;html=1;exitX=0;exitY=0.5;exitDx=0;exitDy=0;" edge="1" parent="1" source="vxe2KzLnzvi5ExElpfic-76">
          <mxGeometry relative="1" as="geometry">
            <mxPoint x="120" y="310" as="targetPoint" />
          </mxGeometry>
        </mxCell>
        <mxCell id="vxe2KzLnzvi5ExElpfic-76" value="&lt;font style=&quot;font-size: 8px;&quot;&gt;sitio_web&lt;/font&gt;" style="ellipse;whiteSpace=wrap;html=1;" vertex="1" parent="1">
          <mxGeometry x="150" y="370" width="60" height="20" as="geometry" />
        </mxCell>
        <mxCell id="vxe2KzLnzvi5ExElpfic-81" style="edgeStyle=orthogonalEdgeStyle;rounded=0;orthogonalLoop=1;jettySize=auto;html=1;exitX=1;exitY=0.5;exitDx=0;exitDy=0;entryX=0;entryY=0;entryDx=0;entryDy=0;" edge="1" parent="1" source="vxe2KzLnzvi5ExElpfic-77" target="vxe2KzLnzvi5ExElpfic-1">
          <mxGeometry relative="1" as="geometry" />
        </mxCell>
        <mxCell id="vxe2KzLnzvi5ExElpfic-77" value="&lt;font style=&quot;font-size: 8px;&quot;&gt;&lt;u&gt;id_empresa&lt;/u&gt;&lt;/font&gt;" style="ellipse;whiteSpace=wrap;html=1;" vertex="1" parent="1">
          <mxGeometry x="-90" y="180" width="60" height="20" as="geometry" />
        </mxCell>
        <mxCell id="vxe2KzLnzvi5ExElpfic-82" style="edgeStyle=orthogonalEdgeStyle;rounded=0;orthogonalLoop=1;jettySize=auto;html=1;exitX=1;exitY=0.5;exitDx=0;exitDy=0;" edge="1" parent="1" source="vxe2KzLnzvi5ExElpfic-78">
          <mxGeometry relative="1" as="geometry">
            <mxPoint y="250" as="targetPoint" />
          </mxGeometry>
        </mxCell>
        <mxCell id="vxe2KzLnzvi5ExElpfic-78" value="&lt;font style=&quot;font-size: 8px;&quot;&gt;nombre&lt;/font&gt;" style="ellipse;whiteSpace=wrap;html=1;" vertex="1" parent="1">
          <mxGeometry x="-90" y="200" width="60" height="20" as="geometry" />
        </mxCell>
        <mxCell id="vxe2KzLnzvi5ExElpfic-83" style="edgeStyle=orthogonalEdgeStyle;rounded=0;orthogonalLoop=1;jettySize=auto;html=1;exitX=1;exitY=0.5;exitDx=0;exitDy=0;" edge="1" parent="1" source="vxe2KzLnzvi5ExElpfic-79">
          <mxGeometry relative="1" as="geometry">
            <mxPoint y="250" as="targetPoint" />
          </mxGeometry>
        </mxCell>
        <mxCell id="vxe2KzLnzvi5ExElpfic-79" value="&lt;font style=&quot;font-size: 8px;&quot;&gt;direcciÃ³n&lt;/font&gt;" style="ellipse;whiteSpace=wrap;html=1;" vertex="1" parent="1">
          <mxGeometry x="-90" y="220" width="60" height="20" as="geometry" />
        </mxCell>
        <mxCell id="vxe2KzLnzvi5ExElpfic-84" style="edgeStyle=orthogonalEdgeStyle;rounded=0;orthogonalLoop=1;jettySize=auto;html=1;exitX=1;exitY=0.5;exitDx=0;exitDy=0;" edge="1" parent="1" source="vxe2KzLnzvi5ExElpfic-80">
          <mxGeometry relative="1" as="geometry">
            <mxPoint y="250" as="targetPoint" />
          </mxGeometry>
        </mxCell>
        <mxCell id="vxe2KzLnzvi5ExElpfic-80" value="&lt;font style=&quot;font-size: 8px;&quot;&gt;telÃ©fono&lt;/font&gt;" style="ellipse;whiteSpace=wrap;html=1;" vertex="1" parent="1">
          <mxGeometry x="-90" y="240" width="60" height="20" as="geometry" />
        </mxCell>
        <mxCell id="vxe2KzLnzvi5ExElpfic-90" value="&lt;font style=&quot;font-size: 8px;&quot;&gt;rol&lt;/font&gt;" style="ellipse;whiteSpace=wrap;html=1;" vertex="1" parent="1">
          <mxGeometry x="-450" y="330" width="60" height="20" as="geometry" />
        </mxCell>
        <mxCell id="vxe2KzLnzvi5ExElpfic-103" style="edgeStyle=orthogonalEdgeStyle;rounded=0;orthogonalLoop=1;jettySize=auto;html=1;exitX=0.5;exitY=0;exitDx=0;exitDy=0;entryX=0.5;entryY=1;entryDx=0;entryDy=0;" edge="1" parent="1" source="vxe2KzLnzvi5ExElpfic-91" target="vxe2KzLnzvi5ExElpfic-2">
          <mxGeometry relative="1" as="geometry" />
        </mxCell>
        <mxCell id="vxe2KzLnzvi5ExElpfic-91" value="&lt;font style=&quot;font-size: 8px;&quot;&gt;contraseÃ±a&lt;/font&gt;" style="ellipse;whiteSpace=wrap;html=1;" vertex="1" parent="1">
          <mxGeometry x="-510" y="330" width="60" height="20" as="geometry" />
        </mxCell>
        <mxCell id="vxe2KzLnzvi5ExElpfic-92" value="&lt;font style=&quot;font-size: 8px;&quot;&gt;correo&lt;/font&gt;" style="ellipse;whiteSpace=wrap;html=1;" vertex="1" parent="1">
          <mxGeometry x="-570" y="330" width="60" height="20" as="geometry" />
        </mxCell>
        <mxCell id="vxe2KzLnzvi5ExElpfic-93" value="&lt;font style=&quot;font-size: 8px;&quot;&gt;&lt;u&gt;id_ususario&lt;/u&gt;&lt;/font&gt;" style="ellipse;whiteSpace=wrap;html=1;" vertex="1" parent="1">
          <mxGeometry x="-570" y="210" width="60" height="20" as="geometry" />
        </mxCell>
        <mxCell id="vxe2KzLnzvi5ExElpfic-101" style="edgeStyle=orthogonalEdgeStyle;rounded=0;orthogonalLoop=1;jettySize=auto;html=1;exitX=0.5;exitY=1;exitDx=0;exitDy=0;entryX=0.5;entryY=0;entryDx=0;entryDy=0;" edge="1" parent="1" source="vxe2KzLnzvi5ExElpfic-94" target="vxe2KzLnzvi5ExElpfic-2">
          <mxGeometry relative="1" as="geometry" />
        </mxCell>
        <mxCell id="vxe2KzLnzvi5ExElpfic-94" value="&lt;font style=&quot;font-size: 8px;&quot;&gt;nombre&lt;/font&gt;" style="ellipse;whiteSpace=wrap;html=1;" vertex="1" parent="1">
          <mxGeometry x="-510" y="210" width="60" height="20" as="geometry" />
        </mxCell>
        <mxCell id="vxe2KzLnzvi5ExElpfic-96" value="&lt;font style=&quot;font-size: 8px;&quot;&gt;apellido&lt;/font&gt;" style="ellipse;whiteSpace=wrap;html=1;" vertex="1" parent="1">
          <mxGeometry x="-450" y="210" width="60" height="20" as="geometry" />
        </mxCell>
        <mxCell id="vxe2KzLnzvi5ExElpfic-98" style="edgeStyle=orthogonalEdgeStyle;rounded=0;orthogonalLoop=1;jettySize=auto;html=1;exitX=0.5;exitY=1;exitDx=0;exitDy=0;entryX=0.084;entryY=0;entryDx=0;entryDy=0;entryPerimeter=0;" edge="1" parent="1" source="vxe2KzLnzvi5ExElpfic-93" target="vxe2KzLnzvi5ExElpfic-2">
          <mxGeometry relative="1" as="geometry" />
        </mxCell>
        <mxCell id="vxe2KzLnzvi5ExElpfic-100" style="edgeStyle=orthogonalEdgeStyle;rounded=0;orthogonalLoop=1;jettySize=auto;html=1;exitX=0.5;exitY=1;exitDx=0;exitDy=0;entryX=0.918;entryY=0.024;entryDx=0;entryDy=0;entryPerimeter=0;" edge="1" parent="1" source="vxe2KzLnzvi5ExElpfic-96" target="vxe2KzLnzvi5ExElpfic-2">
          <mxGeometry relative="1" as="geometry" />
        </mxCell>
        <mxCell id="vxe2KzLnzvi5ExElpfic-104" style="edgeStyle=orthogonalEdgeStyle;rounded=0;orthogonalLoop=1;jettySize=auto;html=1;exitX=0.5;exitY=0;exitDx=0;exitDy=0;entryX=0.083;entryY=1;entryDx=0;entryDy=0;entryPerimeter=0;" edge="1" parent="1" source="vxe2KzLnzvi5ExElpfic-92" target="vxe2KzLnzvi5ExElpfic-2">
          <mxGeometry relative="1" as="geometry" />
        </mxCell>
        <mxCell id="vxe2KzLnzvi5ExElpfic-105" style="edgeStyle=orthogonalEdgeStyle;rounded=0;orthogonalLoop=1;jettySize=auto;html=1;exitX=0.5;exitY=0;exitDx=0;exitDy=0;entryX=0.917;entryY=1;entryDx=0;entryDy=0;entryPerimeter=0;" edge="1" parent="1" source="vxe2KzLnzvi5ExElpfic-90" target="vxe2KzLnzvi5ExElpfic-2">
          <mxGeometry relative="1" as="geometry" />
        </mxCell>
        <mxCell id="vxe2KzLnzvi5ExElpfic-128" style="edgeStyle=orthogonalEdgeStyle;rounded=0;orthogonalLoop=1;jettySize=auto;html=1;exitX=0.5;exitY=0;exitDx=0;exitDy=0;entryX=1;entryY=1;entryDx=0;entryDy=0;" edge="1" parent="1" source="vxe2KzLnzvi5ExElpfic-110" target="vxe2KzLnzvi5ExElpfic-3">
          <mxGeometry relative="1" as="geometry">
            <mxPoint x="-310" y="-70" as="targetPoint" />
          </mxGeometry>
        </mxCell>
        <mxCell id="vxe2KzLnzvi5ExElpfic-110" value="&lt;font style=&quot;font-size: 8px;&quot;&gt;codigo_postal&lt;/font&gt;" style="ellipse;whiteSpace=wrap;html=1;" vertex="1" parent="1">
          <mxGeometry x="-270" y="-45" width="60" height="20" as="geometry" />
        </mxCell>
        <mxCell id="vxe2KzLnzvi5ExElpfic-125" style="edgeStyle=orthogonalEdgeStyle;rounded=0;orthogonalLoop=1;jettySize=auto;html=1;entryX=0;entryY=1;entryDx=0;entryDy=0;" edge="1" parent="1" source="vxe2KzLnzvi5ExElpfic-111" target="vxe2KzLnzvi5ExElpfic-3">
          <mxGeometry relative="1" as="geometry">
            <Array as="points">
              <mxPoint x="-480" y="-50" />
              <mxPoint x="-430" y="-50" />
            </Array>
          </mxGeometry>
        </mxCell>
        <mxCell id="vxe2KzLnzvi5ExElpfic-111" value="&lt;font style=&quot;font-size: 8px;&quot;&gt;correo&lt;/font&gt;" style="ellipse;whiteSpace=wrap;html=1;" vertex="1" parent="1">
          <mxGeometry x="-510" y="-45" width="60" height="20" as="geometry" />
        </mxCell>
        <mxCell id="vxe2KzLnzvi5ExElpfic-124" style="edgeStyle=orthogonalEdgeStyle;rounded=0;orthogonalLoop=1;jettySize=auto;html=1;exitX=0.5;exitY=0;exitDx=0;exitDy=0;entryX=0;entryY=1;entryDx=0;entryDy=0;" edge="1" parent="1" source="vxe2KzLnzvi5ExElpfic-112" target="vxe2KzLnzvi5ExElpfic-3">
          <mxGeometry relative="1" as="geometry">
            <mxPoint x="-430" y="-70" as="targetPoint" />
            <Array as="points">
              <mxPoint x="-430" y="-45" />
            </Array>
          </mxGeometry>
        </mxCell>
        <mxCell id="vxe2KzLnzvi5ExElpfic-112" value="&lt;font style=&quot;font-size: 8px;&quot;&gt;direccion&lt;/font&gt;" style="ellipse;whiteSpace=wrap;html=1;" vertex="1" parent="1">
          <mxGeometry x="-450" y="-45" width="60" height="20" as="geometry" />
        </mxCell>
        <mxCell id="vxe2KzLnzvi5ExElpfic-113" value="&lt;font style=&quot;font-size: 8px;&quot;&gt;ciudad&lt;/font&gt;" style="ellipse;whiteSpace=wrap;html=1;" vertex="1" parent="1">
          <mxGeometry x="-390" y="-45" width="60" height="20" as="geometry" />
        </mxCell>
        <mxCell id="vxe2KzLnzvi5ExElpfic-127" style="edgeStyle=orthogonalEdgeStyle;rounded=0;orthogonalLoop=1;jettySize=auto;html=1;entryX=1;entryY=1;entryDx=0;entryDy=0;" edge="1" parent="1" source="vxe2KzLnzvi5ExElpfic-114" target="vxe2KzLnzvi5ExElpfic-3">
          <mxGeometry relative="1" as="geometry">
            <Array as="points">
              <mxPoint x="-310" y="-50" />
              <mxPoint x="-310" y="-50" />
            </Array>
          </mxGeometry>
        </mxCell>
        <mxCell id="vxe2KzLnzvi5ExElpfic-114" value="&lt;font style=&quot;font-size: 8px;&quot;&gt;provincia&lt;/font&gt;" style="ellipse;whiteSpace=wrap;html=1;" vertex="1" parent="1">
          <mxGeometry x="-330" y="-45" width="60" height="20" as="geometry" />
        </mxCell>
        <mxCell id="vxe2KzLnzvi5ExElpfic-122" style="edgeStyle=orthogonalEdgeStyle;rounded=0;orthogonalLoop=1;jettySize=auto;html=1;entryX=1.007;entryY=0.133;entryDx=0;entryDy=0;entryPerimeter=0;" edge="1" parent="1" source="vxe2KzLnzvi5ExElpfic-115" target="vxe2KzLnzvi5ExElpfic-3">
          <mxGeometry relative="1" as="geometry" />
        </mxCell>
        <mxCell id="vxe2KzLnzvi5ExElpfic-115" value="&lt;font style=&quot;font-size: 8px;&quot;&gt;numero_telefono&lt;/font&gt;" style="ellipse;whiteSpace=wrap;html=1;" vertex="1" parent="1">
          <mxGeometry x="-310" y="-190" width="60" height="20" as="geometry" />
        </mxCell>
        <mxCell id="vxe2KzLnzvi5ExElpfic-121" style="edgeStyle=orthogonalEdgeStyle;rounded=0;orthogonalLoop=1;jettySize=auto;html=1;entryX=0.75;entryY=0;entryDx=0;entryDy=0;" edge="1" parent="1" source="vxe2KzLnzvi5ExElpfic-116" target="vxe2KzLnzvi5ExElpfic-3">
          <mxGeometry relative="1" as="geometry" />
        </mxCell>
        <mxCell id="vxe2KzLnzvi5ExElpfic-116" value="&lt;font style=&quot;font-size: 8px;&quot;&gt;apellidos&lt;/font&gt;" style="ellipse;whiteSpace=wrap;html=1;" vertex="1" parent="1">
          <mxGeometry x="-370" y="-190" width="60" height="20" as="geometry" />
        </mxCell>
        <mxCell id="vxe2KzLnzvi5ExElpfic-117" value="&lt;font style=&quot;font-size: 8px;&quot;&gt;&lt;u&gt;dni&lt;/u&gt;&lt;/font&gt;" style="ellipse;whiteSpace=wrap;html=1;" vertex="1" parent="1">
          <mxGeometry x="-490" y="-190" width="60" height="20" as="geometry" />
        </mxCell>
        <mxCell id="vxe2KzLnzvi5ExElpfic-120" style="edgeStyle=orthogonalEdgeStyle;rounded=0;orthogonalLoop=1;jettySize=auto;html=1;exitX=0.5;exitY=1;exitDx=0;exitDy=0;entryX=0.25;entryY=0;entryDx=0;entryDy=0;" edge="1" parent="1" source="vxe2KzLnzvi5ExElpfic-118" target="vxe2KzLnzvi5ExElpfic-3">
          <mxGeometry relative="1" as="geometry" />
        </mxCell>
        <mxCell id="vxe2KzLnzvi5ExElpfic-118" value="&lt;font style=&quot;font-size: 8px;&quot;&gt;nombre&lt;/font&gt;" style="ellipse;whiteSpace=wrap;html=1;" vertex="1" parent="1">
          <mxGeometry x="-430" y="-190" width="60" height="20" as="geometry" />
        </mxCell>
        <mxCell id="vxe2KzLnzvi5ExElpfic-119" style="edgeStyle=orthogonalEdgeStyle;rounded=0;orthogonalLoop=1;jettySize=auto;html=1;entryX=-0.006;entryY=0.144;entryDx=0;entryDy=0;entryPerimeter=0;" edge="1" parent="1" source="vxe2KzLnzvi5ExElpfic-117" target="vxe2KzLnzvi5ExElpfic-3">
          <mxGeometry relative="1" as="geometry" />
        </mxCell>
        <mxCell id="vxe2KzLnzvi5ExElpfic-126" style="edgeStyle=orthogonalEdgeStyle;rounded=0;orthogonalLoop=1;jettySize=auto;html=1;exitX=0.5;exitY=0;exitDx=0;exitDy=0;entryX=0.58;entryY=0.997;entryDx=0;entryDy=0;entryPerimeter=0;" edge="1" parent="1" source="vxe2KzLnzvi5ExElpfic-113" target="vxe2KzLnzvi5ExElpfic-3">
          <mxGeometry relative="1" as="geometry" />
        </mxCell>
        <mxCell id="vxe2KzLnzvi5ExElpfic-153" style="edgeStyle=orthogonalEdgeStyle;rounded=0;orthogonalLoop=1;jettySize=auto;html=1;exitX=0.5;exitY=0;exitDx=0;exitDy=0;entryX=0;entryY=1;entryDx=0;entryDy=0;" edge="1" parent="1" source="vxe2KzLnzvi5ExElpfic-130" target="vxe2KzLnzvi5ExElpfic-4">
          <mxGeometry relative="1" as="geometry">
            <Array as="points">
              <mxPoint x="260" y="320" />
              <mxPoint x="380" y="320" />
            </Array>
          </mxGeometry>
        </mxCell>
        <mxCell id="vxe2KzLnzvi5ExElpfic-130" value="&lt;font style=&quot;font-size: 8px;&quot;&gt;fecha_registro&lt;/font&gt;" style="ellipse;whiteSpace=wrap;html=1;" vertex="1" parent="1">
          <mxGeometry x="230" y="340" width="60" height="20" as="geometry" />
        </mxCell>
        <mxCell id="vxe2KzLnzvi5ExElpfic-154" style="edgeStyle=orthogonalEdgeStyle;rounded=0;orthogonalLoop=1;jettySize=auto;html=1;exitX=0.5;exitY=0;exitDx=0;exitDy=0;" edge="1" parent="1" source="vxe2KzLnzvi5ExElpfic-132">
          <mxGeometry relative="1" as="geometry">
            <mxPoint x="380" y="310" as="targetPoint" />
          </mxGeometry>
        </mxCell>
        <mxCell id="vxe2KzLnzvi5ExElpfic-132" value="&lt;font style=&quot;font-size: 8px;&quot;&gt;provincia&lt;/font&gt;" style="ellipse;whiteSpace=wrap;html=1;" vertex="1" parent="1">
          <mxGeometry x="290" y="340" width="60" height="20" as="geometry" />
        </mxCell>
        <mxCell id="vxe2KzLnzvi5ExElpfic-158" style="edgeStyle=orthogonalEdgeStyle;rounded=0;orthogonalLoop=1;jettySize=auto;html=1;exitX=0.5;exitY=0;exitDx=0;exitDy=0;" edge="1" parent="1" source="vxe2KzLnzvi5ExElpfic-133">
          <mxGeometry relative="1" as="geometry">
            <mxPoint x="500.0000000000002" y="310" as="targetPoint" />
          </mxGeometry>
        </mxCell>
        <mxCell id="vxe2KzLnzvi5ExElpfic-133" value="&lt;font style=&quot;font-size: 8px;&quot;&gt;tipo&lt;/font&gt;" style="ellipse;whiteSpace=wrap;html=1;" vertex="1" parent="1">
          <mxGeometry x="530" y="340" width="60" height="20" as="geometry" />
        </mxCell>
        <mxCell id="vxe2KzLnzvi5ExElpfic-157" style="edgeStyle=orthogonalEdgeStyle;rounded=0;orthogonalLoop=1;jettySize=auto;html=1;exitX=0.5;exitY=0;exitDx=0;exitDy=0;entryX=1;entryY=1;entryDx=0;entryDy=0;" edge="1" parent="1" source="vxe2KzLnzvi5ExElpfic-134" target="vxe2KzLnzvi5ExElpfic-4">
          <mxGeometry relative="1" as="geometry" />
        </mxCell>
        <mxCell id="vxe2KzLnzvi5ExElpfic-134" value="&lt;font style=&quot;font-size: 8px;&quot;&gt;rct_nit&lt;/font&gt;" style="ellipse;whiteSpace=wrap;html=1;" vertex="1" parent="1">
          <mxGeometry x="470" y="340" width="60" height="20" as="geometry" />
        </mxCell>
        <mxCell id="vxe2KzLnzvi5ExElpfic-156" style="edgeStyle=orthogonalEdgeStyle;rounded=0;orthogonalLoop=1;jettySize=auto;html=1;exitX=0.5;exitY=0;exitDx=0;exitDy=0;entryX=0.5;entryY=1;entryDx=0;entryDy=0;" edge="1" parent="1" source="vxe2KzLnzvi5ExElpfic-135" target="vxe2KzLnzvi5ExElpfic-4">
          <mxGeometry relative="1" as="geometry" />
        </mxCell>
        <mxCell id="vxe2KzLnzvi5ExElpfic-135" value="&lt;font style=&quot;font-size: 8px;&quot;&gt;paÃ­s&lt;/font&gt;" style="ellipse;whiteSpace=wrap;html=1;" vertex="1" parent="1">
          <mxGeometry x="410" y="340" width="60" height="20" as="geometry" />
        </mxCell>
        <mxCell id="vxe2KzLnzvi5ExElpfic-155" style="edgeStyle=orthogonalEdgeStyle;rounded=0;orthogonalLoop=1;jettySize=auto;html=1;exitX=0.5;exitY=0;exitDx=0;exitDy=0;" edge="1" parent="1" source="vxe2KzLnzvi5ExElpfic-136">
          <mxGeometry relative="1" as="geometry">
            <mxPoint x="380" y="310" as="targetPoint" />
          </mxGeometry>
        </mxCell>
        <mxCell id="vxe2KzLnzvi5ExElpfic-136" value="&lt;font style=&quot;font-size: 8px;&quot;&gt;cÃ³digo_postal&lt;/font&gt;" style="ellipse;whiteSpace=wrap;html=1;" vertex="1" parent="1">
          <mxGeometry x="350" y="340" width="60" height="20" as="geometry" />
        </mxCell>
        <mxCell id="vxe2KzLnzvi5ExElpfic-150" style="edgeStyle=orthogonalEdgeStyle;rounded=0;orthogonalLoop=1;jettySize=auto;html=1;exitX=0.5;exitY=1;exitDx=0;exitDy=0;" edge="1" parent="1" source="vxe2KzLnzvi5ExElpfic-137">
          <mxGeometry relative="1" as="geometry">
            <mxPoint x="500" y="260" as="targetPoint" />
            <Array as="points">
              <mxPoint x="590" y="260" />
            </Array>
          </mxGeometry>
        </mxCell>
        <mxCell id="vxe2KzLnzvi5ExElpfic-137" value="&lt;font style=&quot;font-size: 8px;&quot;&gt;ciudad&lt;/font&gt;" style="ellipse;whiteSpace=wrap;html=1;" vertex="1" parent="1">
          <mxGeometry x="560" y="200" width="60" height="20" as="geometry" />
        </mxCell>
        <mxCell id="vxe2KzLnzvi5ExElpfic-138" value="&lt;font style=&quot;font-size: 8px;&quot;&gt;direcciÃ³n&lt;/font&gt;" style="ellipse;whiteSpace=wrap;html=1;" vertex="1" parent="1">
          <mxGeometry x="500" y="200" width="60" height="20" as="geometry" />
        </mxCell>
        <mxCell id="vxe2KzLnzvi5ExElpfic-148" style="edgeStyle=orthogonalEdgeStyle;rounded=0;orthogonalLoop=1;jettySize=auto;html=1;entryX=0.75;entryY=0;entryDx=0;entryDy=0;" edge="1" parent="1" source="vxe2KzLnzvi5ExElpfic-139" target="vxe2KzLnzvi5ExElpfic-4">
          <mxGeometry relative="1" as="geometry" />
        </mxCell>
        <mxCell id="vxe2KzLnzvi5ExElpfic-139" value="&lt;font style=&quot;font-size: 8px;&quot;&gt;telÃ©fono&lt;/font&gt;" style="ellipse;whiteSpace=wrap;html=1;" vertex="1" parent="1">
          <mxGeometry x="440" y="200" width="60" height="20" as="geometry" />
        </mxCell>
        <mxCell id="vxe2KzLnzvi5ExElpfic-147" style="edgeStyle=orthogonalEdgeStyle;rounded=0;orthogonalLoop=1;jettySize=auto;html=1;entryX=0.25;entryY=0;entryDx=0;entryDy=0;" edge="1" parent="1" source="vxe2KzLnzvi5ExElpfic-140" target="vxe2KzLnzvi5ExElpfic-4">
          <mxGeometry relative="1" as="geometry" />
        </mxCell>
        <mxCell id="vxe2KzLnzvi5ExElpfic-140" value="&lt;font style=&quot;font-size: 8px;&quot;&gt;contacto&lt;/font&gt;" style="ellipse;whiteSpace=wrap;html=1;" vertex="1" parent="1">
          <mxGeometry x="380" y="200" width="60" height="20" as="geometry" />
        </mxCell>
        <mxCell id="vxe2KzLnzvi5ExElpfic-141" value="&lt;font style=&quot;font-size: 8px;&quot;&gt;nombre&lt;/font&gt;" style="ellipse;whiteSpace=wrap;html=1;" vertex="1" parent="1">
          <mxGeometry x="320" y="200" width="60" height="20" as="geometry" />
        </mxCell>
        <mxCell id="vxe2KzLnzvi5ExElpfic-142" value="&lt;font style=&quot;font-size: 8px;&quot;&gt;&lt;u&gt;id_proveedores&lt;/u&gt;&lt;/font&gt;" style="ellipse;whiteSpace=wrap;html=1;" vertex="1" parent="1">
          <mxGeometry x="260" y="200" width="60" height="20" as="geometry" />
        </mxCell>
        <mxCell id="vxe2KzLnzvi5ExElpfic-160" style="edgeStyle=orthogonalEdgeStyle;rounded=0;orthogonalLoop=1;jettySize=auto;html=1;exitX=0.5;exitY=0;exitDx=0;exitDy=0;" edge="1" parent="1" source="vxe2KzLnzvi5ExElpfic-143">
          <mxGeometry relative="1" as="geometry">
            <mxPoint x="500.0000000000002" y="310" as="targetPoint" />
            <Array as="points">
              <mxPoint x="620" y="320" />
              <mxPoint x="501" y="320" />
              <mxPoint x="501" y="310" />
            </Array>
          </mxGeometry>
        </mxCell>
        <mxCell id="vxe2KzLnzvi5ExElpfic-143" value="&lt;font style=&quot;font-size: 8px;&quot;&gt;sitio_web&lt;/font&gt;" style="ellipse;whiteSpace=wrap;html=1;" vertex="1" parent="1">
          <mxGeometry x="590" y="340" width="60" height="20" as="geometry" />
        </mxCell>
        <mxCell id="vxe2KzLnzvi5ExElpfic-144" style="edgeStyle=orthogonalEdgeStyle;rounded=0;orthogonalLoop=1;jettySize=auto;html=1;entryX=0;entryY=0.167;entryDx=0;entryDy=0;entryPerimeter=0;" edge="1" parent="1" source="vxe2KzLnzvi5ExElpfic-142" target="vxe2KzLnzvi5ExElpfic-4">
          <mxGeometry relative="1" as="geometry">
            <Array as="points">
              <mxPoint x="290" y="230" />
              <mxPoint x="350" y="230" />
              <mxPoint x="350" y="260" />
            </Array>
          </mxGeometry>
        </mxCell>
        <mxCell id="vxe2KzLnzvi5ExElpfic-146" style="edgeStyle=orthogonalEdgeStyle;rounded=0;orthogonalLoop=1;jettySize=auto;html=1;exitX=0.5;exitY=1;exitDx=0;exitDy=0;" edge="1" parent="1" source="vxe2KzLnzvi5ExElpfic-141">
          <mxGeometry relative="1" as="geometry">
            <mxPoint x="380" y="260" as="targetPoint" />
            <Array as="points">
              <mxPoint x="350" y="260" />
              <mxPoint x="380" y="260" />
            </Array>
          </mxGeometry>
        </mxCell>
        <mxCell id="vxe2KzLnzvi5ExElpfic-149" style="edgeStyle=orthogonalEdgeStyle;rounded=0;orthogonalLoop=1;jettySize=auto;html=1;exitX=0.5;exitY=1;exitDx=0;exitDy=0;entryX=1;entryY=0.167;entryDx=0;entryDy=0;entryPerimeter=0;" edge="1" parent="1" source="vxe2KzLnzvi5ExElpfic-138" target="vxe2KzLnzvi5ExElpfic-4">
          <mxGeometry relative="1" as="geometry" />
        </mxCell>
        <mxCell id="vxe2KzLnzvi5ExElpfic-168" style="edgeStyle=orthogonalEdgeStyle;rounded=0;orthogonalLoop=1;jettySize=auto;html=1;entryX=1;entryY=0;entryDx=0;entryDy=0;" edge="1" parent="1" source="vxe2KzLnzvi5ExElpfic-161" target="vxe2KzLnzvi5ExElpfic-5">
          <mxGeometry relative="1" as="geometry">
            <Array as="points">
              <mxPoint x="540" y="120" />
            </Array>
          </mxGeometry>
        </mxCell>
        <mxCell id="vxe2KzLnzvi5ExElpfic-161" value="&lt;font style=&quot;font-size: 8px;&quot;&gt;fecha_compra&lt;/font&gt;" style="ellipse;whiteSpace=wrap;html=1;" vertex="1" parent="1">
          <mxGeometry x="510" y="80" width="60" height="20" as="geometry" />
        </mxCell>
        <mxCell id="vxe2KzLnzvi5ExElpfic-165" style="edgeStyle=orthogonalEdgeStyle;rounded=0;orthogonalLoop=1;jettySize=auto;html=1;exitX=0.5;exitY=1;exitDx=0;exitDy=0;entryX=0;entryY=0.25;entryDx=0;entryDy=0;" edge="1" parent="1" source="vxe2KzLnzvi5ExElpfic-162" target="vxe2KzLnzvi5ExElpfic-5">
          <mxGeometry relative="1" as="geometry" />
        </mxCell>
        <mxCell id="vxe2KzLnzvi5ExElpfic-162" value="&lt;font style=&quot;font-size: 8px;&quot;&gt;&lt;u&gt;id_compra&lt;/u&gt;&lt;/font&gt;" style="ellipse;whiteSpace=wrap;html=1;" vertex="1" parent="1">
          <mxGeometry x="290" y="80" width="60" height="20" as="geometry" />
        </mxCell>
        <mxCell id="vxe2KzLnzvi5ExElpfic-166" style="edgeStyle=orthogonalEdgeStyle;rounded=0;orthogonalLoop=1;jettySize=auto;html=1;exitX=0.5;exitY=1;exitDx=0;exitDy=0;" edge="1" parent="1" source="vxe2KzLnzvi5ExElpfic-163">
          <mxGeometry relative="1" as="geometry">
            <mxPoint x="379.79999999999995" y="130" as="targetPoint" />
          </mxGeometry>
        </mxCell>
        <mxCell id="vxe2KzLnzvi5ExElpfic-163" value="&lt;font style=&quot;font-size: 6px;&quot;&gt;fecha_devoluciÃ³n&lt;/font&gt;" style="ellipse;whiteSpace=wrap;html=1;" vertex="1" parent="1">
          <mxGeometry x="350" y="80" width="60" height="20" as="geometry" />
        </mxCell>
        <mxCell id="vxe2KzLnzvi5ExElpfic-167" style="edgeStyle=orthogonalEdgeStyle;rounded=0;orthogonalLoop=1;jettySize=auto;html=1;exitX=0.5;exitY=1;exitDx=0;exitDy=0;entryX=0.5;entryY=0;entryDx=0;entryDy=0;" edge="1" parent="1" source="vxe2KzLnzvi5ExElpfic-164" target="vxe2KzLnzvi5ExElpfic-5">
          <mxGeometry relative="1" as="geometry" />
        </mxCell>
        <mxCell id="vxe2KzLnzvi5ExElpfic-164" value="&lt;font style=&quot;font-size: 8px;&quot;&gt;monto_total&lt;/font&gt;" style="ellipse;whiteSpace=wrap;html=1;" vertex="1" parent="1">
          <mxGeometry x="410" y="80" width="60" height="20" as="geometry" />
        </mxCell>
        <mxCell id="vxe2KzLnzvi5ExElpfic-176" style="edgeStyle=orthogonalEdgeStyle;rounded=0;orthogonalLoop=1;jettySize=auto;html=1;entryX=0;entryY=0;entryDx=0;entryDy=0;" edge="1" parent="1" source="vxe2KzLnzvi5ExElpfic-169" target="vxe2KzLnzvi5ExElpfic-6">
          <mxGeometry relative="1" as="geometry" />
        </mxCell>
        <mxCell id="vxe2KzLnzvi5ExElpfic-169" value="&lt;font style=&quot;font-size: 8px;&quot;&gt;&lt;u&gt;id_producto&lt;/u&gt;&lt;/font&gt;" style="ellipse;whiteSpace=wrap;html=1;" vertex="1" parent="1">
          <mxGeometry x="330" y="395" width="60" height="20" as="geometry" />
        </mxCell>
        <mxCell id="vxe2KzLnzvi5ExElpfic-181" style="edgeStyle=orthogonalEdgeStyle;rounded=0;orthogonalLoop=1;jettySize=auto;html=1;entryX=0;entryY=1;entryDx=0;entryDy=0;" edge="1" parent="1" source="vxe2KzLnzvi5ExElpfic-171" target="vxe2KzLnzvi5ExElpfic-6">
          <mxGeometry relative="1" as="geometry">
            <Array as="points">
              <mxPoint x="350" y="520" />
              <mxPoint x="380" y="520" />
            </Array>
          </mxGeometry>
        </mxCell>
        <mxCell id="vxe2KzLnzvi5ExElpfic-171" value="&lt;font style=&quot;font-size: 8px;&quot;&gt;aÃ±os_garantia&lt;/font&gt;" style="ellipse;whiteSpace=wrap;html=1;" vertex="1" parent="1">
          <mxGeometry x="310" y="540" width="60" height="20" as="geometry" />
        </mxCell>
        <mxCell id="vxe2KzLnzvi5ExElpfic-172" value="&lt;font style=&quot;font-size: 8px;&quot;&gt;unidades&lt;/font&gt;" style="ellipse;whiteSpace=wrap;html=1;" vertex="1" parent="1">
          <mxGeometry x="370" y="540" width="60" height="20" as="geometry" />
        </mxCell>
        <mxCell id="vxe2KzLnzvi5ExElpfic-179" style="edgeStyle=orthogonalEdgeStyle;rounded=0;orthogonalLoop=1;jettySize=auto;html=1;entryX=1;entryY=0.25;entryDx=0;entryDy=0;" edge="1" parent="1" source="vxe2KzLnzvi5ExElpfic-173" target="vxe2KzLnzvi5ExElpfic-6">
          <mxGeometry relative="1" as="geometry">
            <Array as="points">
              <mxPoint x="540" y="465" />
            </Array>
          </mxGeometry>
        </mxCell>
        <mxCell id="vxe2KzLnzvi5ExElpfic-173" value="&lt;font style=&quot;font-size: 8px;&quot;&gt;precio&lt;/font&gt;" style="ellipse;whiteSpace=wrap;html=1;" vertex="1" parent="1">
          <mxGeometry x="510" y="395" width="60" height="20" as="geometry" />
        </mxCell>
        <mxCell id="vxe2KzLnzvi5ExElpfic-174" value="&lt;font style=&quot;font-size: 8px;&quot;&gt;nombre&lt;/font&gt;" style="ellipse;whiteSpace=wrap;html=1;" vertex="1" parent="1">
          <mxGeometry x="390" y="395" width="60" height="20" as="geometry" />
        </mxCell>
        <mxCell id="vxe2KzLnzvi5ExElpfic-175" value="&lt;font style=&quot;font-size: 8px;&quot;&gt;descripciÃ³n&lt;/font&gt;" style="ellipse;whiteSpace=wrap;html=1;" vertex="1" parent="1">
          <mxGeometry x="450" y="395" width="60" height="20" as="geometry" />
        </mxCell>
        <mxCell id="vxe2KzLnzvi5ExElpfic-177" style="edgeStyle=orthogonalEdgeStyle;rounded=0;orthogonalLoop=1;jettySize=auto;html=1;entryX=0.332;entryY=0.058;entryDx=0;entryDy=0;entryPerimeter=0;" edge="1" parent="1" source="vxe2KzLnzvi5ExElpfic-174" target="vxe2KzLnzvi5ExElpfic-6">
          <mxGeometry relative="1" as="geometry" />
        </mxCell>
        <mxCell id="vxe2KzLnzvi5ExElpfic-178" style="edgeStyle=orthogonalEdgeStyle;rounded=0;orthogonalLoop=1;jettySize=auto;html=1;entryX=0.833;entryY=0.005;entryDx=0;entryDy=0;entryPerimeter=0;" edge="1" parent="1" source="vxe2KzLnzvi5ExElpfic-175" target="vxe2KzLnzvi5ExElpfic-6">
          <mxGeometry relative="1" as="geometry" />
        </mxCell>
        <mxCell id="vxe2KzLnzvi5ExElpfic-180" style="edgeStyle=orthogonalEdgeStyle;rounded=0;orthogonalLoop=1;jettySize=auto;html=1;entryX=0.167;entryY=1;entryDx=0;entryDy=0;entryPerimeter=0;" edge="1" parent="1" source="vxe2KzLnzvi5ExElpfic-172" target="vxe2KzLnzvi5ExElpfic-6">
          <mxGeometry relative="1" as="geometry" />
        </mxCell>
        <mxCell id="vxe2KzLnzvi5ExElpfic-186" style="edgeStyle=orthogonalEdgeStyle;rounded=0;orthogonalLoop=1;jettySize=auto;html=1;exitX=0.5;exitY=0;exitDx=0;exitDy=0;entryX=0.25;entryY=1;entryDx=0;entryDy=0;" edge="1" parent="1" source="vxe2KzLnzvi5ExElpfic-182" target="vxe2KzLnzvi5ExElpfic-7">
          <mxGeometry relative="1" as="geometry" />
        </mxCell>
        <mxCell id="vxe2KzLnzvi5ExElpfic-182" value="&lt;font style=&quot;font-size: 6px;&quot;&gt;&lt;u&gt;id_detalles_compra&lt;/u&gt;&lt;/font&gt;" style="ellipse;whiteSpace=wrap;html=1;" vertex="1" parent="1">
          <mxGeometry x="730" y="65" width="60" height="25" as="geometry" />
        </mxCell>
        <mxCell id="vxe2KzLnzvi5ExElpfic-187" style="edgeStyle=orthogonalEdgeStyle;rounded=0;orthogonalLoop=1;jettySize=auto;html=1;exitX=0.5;exitY=0;exitDx=0;exitDy=0;entryX=0.5;entryY=1;entryDx=0;entryDy=0;" edge="1" parent="1" source="vxe2KzLnzvi5ExElpfic-183" target="vxe2KzLnzvi5ExElpfic-7">
          <mxGeometry relative="1" as="geometry" />
        </mxCell>
        <mxCell id="vxe2KzLnzvi5ExElpfic-183" value="&lt;font style=&quot;font-size: 8px;&quot;&gt;cantidad&lt;/font&gt;" style="ellipse;whiteSpace=wrap;html=1;" vertex="1" parent="1">
          <mxGeometry x="790" y="65" width="60" height="25" as="geometry" />
        </mxCell>
        <mxCell id="vxe2KzLnzvi5ExElpfic-188" style="edgeStyle=orthogonalEdgeStyle;rounded=0;orthogonalLoop=1;jettySize=auto;html=1;exitX=0.5;exitY=0;exitDx=0;exitDy=0;entryX=0.75;entryY=1;entryDx=0;entryDy=0;" edge="1" parent="1" source="vxe2KzLnzvi5ExElpfic-184" target="vxe2KzLnzvi5ExElpfic-7">
          <mxGeometry relative="1" as="geometry" />
        </mxCell>
        <mxCell id="vxe2KzLnzvi5ExElpfic-184" value="&lt;font style=&quot;font-size: 8px;&quot;&gt;precio_unidad&lt;/font&gt;" style="ellipse;whiteSpace=wrap;html=1;" vertex="1" parent="1">
          <mxGeometry x="850" y="65" width="60" height="25" as="geometry" />
        </mxCell>
        <mxCell id="vxe2KzLnzvi5ExElpfic-189" value="&lt;font style=&quot;font-size: 8px;&quot;&gt;fecha_entrega&lt;/font&gt;" style="ellipse;whiteSpace=wrap;html=1;" vertex="1" parent="1">
          <mxGeometry x="-534" y="415" width="60" height="20" as="geometry" />
        </mxCell>
        <mxCell id="vxe2KzLnzvi5ExElpfic-190" value="&lt;font style=&quot;font-size: 8px;&quot;&gt;fecha_envio&lt;/font&gt;" style="ellipse;whiteSpace=wrap;html=1;" vertex="1" parent="1">
          <mxGeometry x="-534" y="395" width="60" height="20" as="geometry" />
        </mxCell>
        <mxCell id="vxe2KzLnzvi5ExElpfic-191" value="&lt;font style=&quot;font-size: 8px;&quot;&gt;&lt;u&gt;id_envio&lt;/u&gt;&lt;/font&gt;" style="ellipse;whiteSpace=wrap;html=1;" vertex="1" parent="1">
          <mxGeometry x="-534" y="375" width="60" height="20" as="geometry" />
        </mxCell>
        <mxCell id="vxe2KzLnzvi5ExElpfic-192" value="&lt;font style=&quot;font-size: 8px;&quot;&gt;direcciÃ³n_envio&lt;/font&gt;" style="ellipse;whiteSpace=wrap;html=1;" vertex="1" parent="1">
          <mxGeometry x="-534" y="460" width="60" height="20" as="geometry" />
        </mxCell>
        <mxCell id="vxe2KzLnzvi5ExElpfic-193" value="&lt;font style=&quot;font-size: 8px;&quot;&gt;ciudad_envio&lt;/font&gt;" style="ellipse;whiteSpace=wrap;html=1;" vertex="1" parent="1">
          <mxGeometry x="-474" y="460" width="60" height="20" as="geometry" />
        </mxCell>
        <mxCell id="vxe2KzLnzvi5ExElpfic-203" style="edgeStyle=orthogonalEdgeStyle;rounded=0;orthogonalLoop=1;jettySize=auto;html=1;exitX=0.5;exitY=0;exitDx=0;exitDy=0;entryX=1;entryY=1;entryDx=0;entryDy=0;" edge="1" parent="1" source="vxe2KzLnzvi5ExElpfic-194" target="vxe2KzLnzvi5ExElpfic-8">
          <mxGeometry relative="1" as="geometry" />
        </mxCell>
        <mxCell id="vxe2KzLnzvi5ExElpfic-194" value="&lt;font style=&quot;font-size: 8px;&quot;&gt;cÃ³digo_postal&lt;/font&gt;" style="ellipse;whiteSpace=wrap;html=1;" vertex="1" parent="1">
          <mxGeometry x="-350" y="460" width="60" height="20" as="geometry" />
        </mxCell>
        <mxCell id="vxe2KzLnzvi5ExElpfic-205" style="edgeStyle=orthogonalEdgeStyle;rounded=0;orthogonalLoop=1;jettySize=auto;html=1;exitX=0.5;exitY=0;exitDx=0;exitDy=0;entryX=1;entryY=1;entryDx=0;entryDy=0;" edge="1" parent="1" source="vxe2KzLnzvi5ExElpfic-195" target="vxe2KzLnzvi5ExElpfic-8">
          <mxGeometry relative="1" as="geometry" />
        </mxCell>
        <mxCell id="vxe2KzLnzvi5ExElpfic-195" value="&lt;font style=&quot;font-size: 8px;&quot;&gt;estado_envio&lt;/font&gt;" style="ellipse;whiteSpace=wrap;html=1;" vertex="1" parent="1">
          <mxGeometry x="-290" y="460" width="60" height="20" as="geometry" />
        </mxCell>
        <mxCell id="vxe2KzLnzvi5ExElpfic-198" style="edgeStyle=orthogonalEdgeStyle;rounded=0;orthogonalLoop=1;jettySize=auto;html=1;exitX=1;exitY=0.5;exitDx=0;exitDy=0;entryX=0;entryY=0.169;entryDx=0;entryDy=0;entryPerimeter=0;" edge="1" parent="1" source="vxe2KzLnzvi5ExElpfic-191" target="vxe2KzLnzvi5ExElpfic-8">
          <mxGeometry relative="1" as="geometry" />
        </mxCell>
        <mxCell id="vxe2KzLnzvi5ExElpfic-199" style="edgeStyle=orthogonalEdgeStyle;rounded=0;orthogonalLoop=1;jettySize=auto;html=1;exitX=1;exitY=0.5;exitDx=0;exitDy=0;entryX=-0.027;entryY=0.508;entryDx=0;entryDy=0;entryPerimeter=0;" edge="1" parent="1" source="vxe2KzLnzvi5ExElpfic-190" target="vxe2KzLnzvi5ExElpfic-8">
          <mxGeometry relative="1" as="geometry" />
        </mxCell>
        <mxCell id="vxe2KzLnzvi5ExElpfic-200" style="edgeStyle=orthogonalEdgeStyle;rounded=0;orthogonalLoop=1;jettySize=auto;html=1;exitX=1;exitY=0.5;exitDx=0;exitDy=0;entryX=0;entryY=0.836;entryDx=0;entryDy=0;entryPerimeter=0;" edge="1" parent="1" source="vxe2KzLnzvi5ExElpfic-189" target="vxe2KzLnzvi5ExElpfic-8">
          <mxGeometry relative="1" as="geometry" />
        </mxCell>
        <mxCell id="vxe2KzLnzvi5ExElpfic-201" style="edgeStyle=orthogonalEdgeStyle;rounded=0;orthogonalLoop=1;jettySize=auto;html=1;exitX=0.5;exitY=0;exitDx=0;exitDy=0;entryX=0.209;entryY=0.996;entryDx=0;entryDy=0;entryPerimeter=0;" edge="1" parent="1" source="vxe2KzLnzvi5ExElpfic-193" target="vxe2KzLnzvi5ExElpfic-8">
          <mxGeometry relative="1" as="geometry" />
        </mxCell>
        <mxCell id="vxe2KzLnzvi5ExElpfic-202" style="edgeStyle=orthogonalEdgeStyle;rounded=0;orthogonalLoop=1;jettySize=auto;html=1;exitX=0.5;exitY=0;exitDx=0;exitDy=0;entryX=0.075;entryY=0.988;entryDx=0;entryDy=0;entryPerimeter=0;" edge="1" parent="1" source="vxe2KzLnzvi5ExElpfic-192" target="vxe2KzLnzvi5ExElpfic-8">
          <mxGeometry relative="1" as="geometry">
            <Array as="points">
              <mxPoint x="-504" y="440" />
              <mxPoint x="-454" y="440" />
              <mxPoint x="-454" y="455" />
              <mxPoint x="-431" y="455" />
            </Array>
          </mxGeometry>
        </mxCell>
        <mxCell id="vxe2KzLnzvi5ExElpfic-212" style="edgeStyle=orthogonalEdgeStyle;rounded=0;orthogonalLoop=1;jettySize=auto;html=1;exitX=0.5;exitY=0;exitDx=0;exitDy=0;entryX=1;entryY=0.5;entryDx=0;entryDy=0;" edge="1" parent="1" source="vxe2KzLnzvi5ExElpfic-206" target="vxe2KzLnzvi5ExElpfic-9">
          <mxGeometry relative="1" as="geometry" />
        </mxCell>
        <mxCell id="vxe2KzLnzvi5ExElpfic-206" value="&lt;font style=&quot;font-size: 8px;&quot;&gt;monto_total&lt;/font&gt;" style="ellipse;whiteSpace=wrap;html=1;" vertex="1" parent="1">
          <mxGeometry x="280" y="720" width="60" height="20" as="geometry" />
        </mxCell>
        <mxCell id="vxe2KzLnzvi5ExElpfic-213" style="edgeStyle=orthogonalEdgeStyle;rounded=0;orthogonalLoop=1;jettySize=auto;html=1;exitX=1;exitY=0.5;exitDx=0;exitDy=0;entryX=0.25;entryY=0;entryDx=0;entryDy=0;" edge="1" parent="1" source="vxe2KzLnzvi5ExElpfic-207" target="vxe2KzLnzvi5ExElpfic-9">
          <mxGeometry relative="1" as="geometry" />
        </mxCell>
        <mxCell id="vxe2KzLnzvi5ExElpfic-207" value="&lt;font style=&quot;font-size: 8px;&quot;&gt;&lt;u&gt;id_venta&lt;/u&gt;&lt;/font&gt;" style="ellipse;whiteSpace=wrap;html=1;" vertex="1" parent="1">
          <mxGeometry x="100" y="620" width="60" height="20" as="geometry" />
        </mxCell>
        <mxCell id="vxe2KzLnzvi5ExElpfic-211" style="edgeStyle=orthogonalEdgeStyle;rounded=0;orthogonalLoop=1;jettySize=auto;html=1;entryX=1;entryY=0.5;entryDx=0;entryDy=0;" edge="1" parent="1" source="vxe2KzLnzvi5ExElpfic-208" target="vxe2KzLnzvi5ExElpfic-9">
          <mxGeometry relative="1" as="geometry">
            <Array as="points">
              <mxPoint x="310" y="680" />
            </Array>
          </mxGeometry>
        </mxCell>
        <mxCell id="vxe2KzLnzvi5ExElpfic-208" value="&lt;font style=&quot;font-size: 8px;&quot;&gt;fecha_venta&lt;/font&gt;" style="ellipse;whiteSpace=wrap;html=1;" vertex="1" parent="1">
          <mxGeometry x="280" y="620" width="60" height="20" as="geometry" />
        </mxCell>
        <mxCell id="vxe2KzLnzvi5ExElpfic-218" style="edgeStyle=orthogonalEdgeStyle;rounded=0;orthogonalLoop=1;jettySize=auto;html=1;exitX=1;exitY=0.5;exitDx=0;exitDy=0;entryX=0;entryY=0.5;entryDx=0;entryDy=0;" edge="1" parent="1" source="vxe2KzLnzvi5ExElpfic-214" target="vxe2KzLnzvi5ExElpfic-10">
          <mxGeometry relative="1" as="geometry">
            <Array as="points">
              <mxPoint x="-460" y="650" />
              <mxPoint x="-460" y="680" />
            </Array>
          </mxGeometry>
        </mxCell>
        <mxCell id="vxe2KzLnzvi5ExElpfic-214" value="&lt;font style=&quot;font-size: 8px;&quot;&gt;&lt;u&gt;id_detalles_venta&lt;/u&gt;&lt;/font&gt;" style="ellipse;whiteSpace=wrap;html=1;" vertex="1" parent="1">
          <mxGeometry x="-540" y="640" width="64" height="20" as="geometry" />
        </mxCell>
        <mxCell id="vxe2KzLnzvi5ExElpfic-219" style="edgeStyle=orthogonalEdgeStyle;rounded=0;orthogonalLoop=1;jettySize=auto;html=1;exitX=1;exitY=0.5;exitDx=0;exitDy=0;" edge="1" parent="1" source="vxe2KzLnzvi5ExElpfic-215">
          <mxGeometry relative="1" as="geometry">
            <mxPoint x="-440" y="680" as="targetPoint" />
            <Array as="points">
              <mxPoint x="-460" y="670" />
              <mxPoint x="-460" y="680" />
            </Array>
          </mxGeometry>
        </mxCell>
        <mxCell id="vxe2KzLnzvi5ExElpfic-215" value="&lt;font style=&quot;font-size: 8px;&quot;&gt;cantidad&lt;/font&gt;" style="ellipse;whiteSpace=wrap;html=1;" vertex="1" parent="1">
          <mxGeometry x="-540" y="660" width="64" height="20" as="geometry" />
        </mxCell>
        <mxCell id="vxe2KzLnzvi5ExElpfic-220" style="edgeStyle=orthogonalEdgeStyle;rounded=0;orthogonalLoop=1;jettySize=auto;html=1;exitX=1;exitY=0.5;exitDx=0;exitDy=0;" edge="1" parent="1" source="vxe2KzLnzvi5ExElpfic-216">
          <mxGeometry relative="1" as="geometry">
            <mxPoint x="-440" y="680" as="targetPoint" />
            <Array as="points">
              <mxPoint x="-460" y="690" />
              <mxPoint x="-460" y="680" />
            </Array>
          </mxGeometry>
        </mxCell>
        <mxCell id="vxe2KzLnzvi5ExElpfic-216" value="&lt;font style=&quot;font-size: 8px;&quot;&gt;precio_unidad&lt;/font&gt;" style="ellipse;whiteSpace=wrap;html=1;" vertex="1" parent="1">
          <mxGeometry x="-540" y="680" width="64" height="20" as="geometry" />
        </mxCell>
        <mxCell id="vxe2KzLnzvi5ExElpfic-221" style="edgeStyle=orthogonalEdgeStyle;rounded=0;orthogonalLoop=1;jettySize=auto;html=1;exitX=1;exitY=0.5;exitDx=0;exitDy=0;" edge="1" parent="1" source="vxe2KzLnzvi5ExElpfic-217">
          <mxGeometry relative="1" as="geometry">
            <mxPoint x="-440" y="680" as="targetPoint" />
            <Array as="points">
              <mxPoint x="-460" y="710" />
              <mxPoint x="-460" y="680" />
            </Array>
          </mxGeometry>
        </mxCell>
        <mxCell id="vxe2KzLnzvi5ExElpfic-217" value="&lt;font style=&quot;font-size: 8px;&quot;&gt;is_enviado&lt;/font&gt;" style="ellipse;whiteSpace=wrap;html=1;" vertex="1" parent="1">
          <mxGeometry x="-540" y="700" width="64" height="20" as="geometry" />
        </mxCell>
        <mxCell id="vxe2KzLnzvi5ExElpfic-222" value="1:n" style="text;html=1;align=center;verticalAlign=middle;whiteSpace=wrap;rounded=0;" vertex="1" parent="1">
          <mxGeometry x="-220" y="226" width="60" height="30" as="geometry" />
        </mxCell>
        <mxCell id="vxe2KzLnzvi5ExElpfic-223" value="1:n" style="text;html=1;align=center;verticalAlign=middle;whiteSpace=wrap;rounded=0;" vertex="1" parent="1">
          <mxGeometry x="-10" y="-159" width="60" height="30" as="geometry" />
        </mxCell>
        <mxCell id="vxe2KzLnzvi5ExElpfic-224" value="1:n" style="text;html=1;align=center;verticalAlign=middle;whiteSpace=wrap;rounded=0;" vertex="1" parent="1">
          <mxGeometry x="240" y="226" width="60" height="30" as="geometry" />
        </mxCell>
        <mxCell id="vxe2KzLnzvi5ExElpfic-225" value="1:n" style="text;html=1;align=center;verticalAlign=middle;whiteSpace=wrap;rounded=0;" vertex="1" parent="1">
          <mxGeometry x="120" y="100" width="60" height="30" as="geometry" />
        </mxCell>
        <mxCell id="vxe2KzLnzvi5ExElpfic-226" value="1:n" style="text;html=1;align=center;verticalAlign=middle;whiteSpace=wrap;rounded=0;" vertex="1" parent="1">
          <mxGeometry x="750" y="201" width="60" height="30" as="geometry" />
        </mxCell>
        <mxCell id="vxe2KzLnzvi5ExElpfic-227" value="1:n" style="text;html=1;align=center;verticalAlign=middle;whiteSpace=wrap;rounded=0;" vertex="1" parent="1">
          <mxGeometry x="240" y="430" width="60" height="30" as="geometry" />
        </mxCell>
        <mxCell id="vxe2KzLnzvi5ExElpfic-228" value="1:n" style="text;html=1;align=center;verticalAlign=middle;whiteSpace=wrap;rounded=0;" vertex="1" parent="1">
          <mxGeometry x="750" y="388" width="60" height="30" as="geometry" />
        </mxCell>
        <mxCell id="vxe2KzLnzvi5ExElpfic-229" value="1:n" style="text;html=1;align=center;verticalAlign=middle;whiteSpace=wrap;rounded=0;" vertex="1" parent="1">
          <mxGeometry x="450" y="-45" width="60" height="30" as="geometry" />
        </mxCell>
        <mxCell id="vxe2KzLnzvi5ExElpfic-230" value="1:n" style="text;html=1;align=center;verticalAlign=middle;whiteSpace=wrap;rounded=0;" vertex="1" parent="1">
          <mxGeometry x="1120" y="110" width="60" height="30" as="geometry" />
        </mxCell>
        <mxCell id="vxe2KzLnzvi5ExElpfic-231" value="1:n" style="text;html=1;align=center;verticalAlign=middle;whiteSpace=wrap;rounded=0;" vertex="1" parent="1">
          <mxGeometry x="250" y="-135" width="60" height="30" as="geometry" />
        </mxCell>
        <mxCell id="vxe2KzLnzvi5ExElpfic-232" value="1:1" style="text;html=1;align=center;verticalAlign=middle;whiteSpace=wrap;rounded=0;" vertex="1" parent="1">
          <mxGeometry x="-320" y="525" width="60" height="30" as="geometry" />
        </mxCell>
        <mxCell id="vxe2KzLnzvi5ExElpfic-233" value="1:n" style="text;html=1;align=center;verticalAlign=middle;whiteSpace=wrap;rounded=0;" vertex="1" parent="1">
          <mxGeometry x="-130" y="351" width="60" height="30" as="geometry" />
        </mxCell>
        <mxCell id="vxe2KzLnzvi5ExElpfic-234" value="1:n" style="text;html=1;align=center;verticalAlign=middle;whiteSpace=wrap;rounded=0;" vertex="1" parent="1">
          <mxGeometry x="-40" y="517" width="60" height="30" as="geometry" />
        </mxCell>
        <mxCell id="vxe2KzLnzvi5ExElpfic-235" value="1:n" style="text;html=1;align=center;verticalAlign=middle;whiteSpace=wrap;rounded=0;" vertex="1" parent="1">
          <mxGeometry x="-770" y="375" width="60" height="30" as="geometry" />
        </mxCell>
        <mxCell id="vxe2KzLnzvi5ExElpfic-236" value="1:n" style="text;html=1;align=center;verticalAlign=middle;whiteSpace=wrap;rounded=0;" vertex="1" parent="1">
          <mxGeometry x="-150" y="620" width="60" height="30" as="geometry" />
        </mxCell>
        <mxCell id="vxe2KzLnzvi5ExElpfic-237" value="1:n" style="text;html=1;align=center;verticalAlign=middle;whiteSpace=wrap;rounded=0;" vertex="1" parent="1">
          <mxGeometry x="-310" y="1010" width="60" height="30" as="geometry" />
        </mxCell>
      </root>
    </mxGraphModel>
  </diagram>
</mxfile>
